<svg xmlns="http://www.w3.org/2000/svg" viewBox="0 0 104.92 27.74"><defs><style>.cls-1{fill:#23b7a5;}</style></defs><path class="cls-1" d="M27.74,13.87a13.9,13.9,0,1,0-3.54,9.24,5.45,5.45,0,0,1-2.8.77,5.5,5.5,0,1,1,5.5-5.5,2,2,0,0,1,0,.25A13.63,13.63,0,0,0,27.74,13.87ZM13.83,22.81a4,4,0,0,1-3,1.2H7.42V21.74h3.39a1.77,1.77,0,0,0,1.37-.48,2.8,2.8,0,0,0,.56-1.78V8.86H15V19.42A4.93,4.93,0,0,1,13.83,22.81Z"/><path class="cls-1" d="M17.87,18.38a3.53,3.53,0,1,0,3.53-3.52A3.53,3.53,0,0,0,17.87,18.38Z"/><path class="cls-1" d="M75.07,13.9a5.76,5.76,0,0,0-1.15,3.87V23.9h2V17.7a4,4,0,0,1,.62-2.46,1,1,0,0,1,.84-.33h4.72V13H77.35A3,3,0,0,0,75.07,13.9Z"/><path class="cls-1" d="M38.69,8.86h-2v5.31A5.46,5.46,0,0,0,33.26,13a5.49,5.49,0,1,0,5.43,4.45ZM33.26,22a3.57,3.57,0,1,1,3.56-3.56A3.57,3.57,0,0,1,33.26,22Z"/><polygon class="cls-1" points="61.91 12.86 59.15 12.86 53.68 17.96 53.66 8.86 51.77 8.87 51.81 23.8 52.75 23.8 53.69 23.79 53.69 20.54 55.87 18.5 60.36 23.8 62.84 23.8 57.24 17.21 61.91 12.86"/><path class="cls-1" d="M67.23,12.89a5.5,5.5,0,1,0,5.49,5.49A5.49,5.49,0,0,0,67.23,12.89Zm0,9a3.53,3.53,0,1,1,3.52-3.53A3.53,3.53,0,0,1,67.23,21.91Z"/><path class="cls-1" d="M45.24,12.89a5.5,5.5,0,1,0,5,7.71H48a3.5,3.5,0,0,1-6.09-1.23h8.77a5.36,5.36,0,0,0,.09-1A5.49,5.49,0,0,0,45.24,12.89ZM41.86,17.4a3.51,3.51,0,0,1,6.75,0Z"/><path class="cls-1" d="M87.63,12.89a5.5,5.5,0,1,0,5,7.71h-2.3a3.5,3.5,0,0,1-6.1-1.23H93a5.55,5.55,0,0,0,.09-1A5.49,5.49,0,0,0,87.63,12.89ZM84.26,17.4a3.51,3.51,0,0,1,6.75,0Z"/><path class="cls-1" d="M99.42,12.89A5.5,5.5,0,1,0,103,22.57V23.9h1.79V19.61a4.93,4.93,0,0,0,.15-1.23A5.5,5.5,0,0,0,99.42,12.89Zm0,9A3.53,3.53,0,1,1,103,18.38,3.54,3.54,0,0,1,99.42,21.91Z"/><path class="cls-1" d="M25,22.57V23.9h1.79V19.61A5.57,5.57,0,0,1,25,22.57Z"/></svg>